<svg width="17" height="17" viewBox="0 0 17 17" fill="none" xmlns="http://www.w3.org/2000/svg">
<mask id="mask0_4175_1212" style="mask-type:alpha" maskUnits="userSpaceOnUse" x="0" y="0" width="17" height="17">
<rect width="16.9351" height="16.9351" fill="#D9D9D9"/>
</mask>
<g mask="url(#mask0_4175_1212)">
<path d="M6.74894 10.6904L12.7291 4.71022C12.8703 4.5691 13.0349 4.49854 13.2231 4.49854C13.4113 4.49854 13.5759 4.5691 13.717 4.71022C13.8582 4.85135 13.9287 5.01894 13.9287 5.21298C13.9287 5.40703 13.8582 5.57462 13.717 5.71574L7.24288 12.2075C7.10176 12.3487 6.93711 12.4192 6.74894 12.4192C6.56078 12.4192 6.39613 12.3487 6.255 12.2075L3.2208 9.17333C3.07967 9.0322 3.01205 8.86461 3.01793 8.67057C3.02381 8.47652 3.09731 8.30893 3.23844 8.1678C3.37957 8.02668 3.54715 7.95612 3.7412 7.95612C3.93525 7.95612 4.10283 8.02668 4.24396 8.1678L6.74894 10.6904Z" fill="#4C4197"/>
</g>
</svg>
