<svg width="13" height="13" viewBox="0 0 13 13" fill="none" xmlns="http://www.w3.org/2000/svg">
<path d="M2.31836 4.51967C2.00197 4.60486 1.72251 4.79198 1.52323 5.05207C1.32396 5.31215 1.216 5.63068 1.21606 5.95833V7.58333C1.21606 7.9784 1.373 8.35728 1.65235 8.63663C1.9317 8.91598 2.31059 9.07292 2.70565 9.07292H4.05981C4.16756 9.07292 4.27089 9.03012 4.34708 8.95393C4.42326 8.87774 4.46606 8.77441 4.46606 8.66667V4.875C4.46606 4.76726 4.42326 4.66392 4.34708 4.58774C4.27089 4.51155 4.16756 4.46875 4.05981 4.46875H3.14711C3.37948 3.13083 4.74177 2.03125 6.49731 2.03125C8.25286 2.03125 9.61515 3.13083 9.84752 4.46875H8.93481C8.82707 4.46875 8.72374 4.51155 8.64755 4.58774C8.57137 4.66392 8.52856 4.76726 8.52856 4.875V8.66667C8.52856 8.89092 8.71056 9.07292 8.93481 9.07292H9.83561C9.74415 9.45854 9.52524 9.80202 9.21432 10.0478C8.90339 10.2935 8.51863 10.4272 8.12231 10.4271H7.50211C7.40783 10.194 7.23543 10.001 7.01445 9.88112C6.79347 9.76123 6.53767 9.72192 6.29089 9.76995C6.04412 9.81797 5.82172 9.95033 5.66183 10.1443C5.50194 10.3383 5.4145 10.5819 5.4145 10.8333C5.4145 11.0847 5.50194 11.3283 5.66183 11.5223C5.82172 11.7163 6.04412 11.8487 6.29089 11.8967C6.53767 11.9447 6.79347 11.9054 7.01445 11.7856C7.23543 11.6657 7.40783 11.4726 7.50211 11.2396H8.12231C9.42231 11.2396 10.497 10.2754 10.6709 9.02363C10.9885 8.93937 11.2694 8.75244 11.4697 8.49193C11.6701 8.23142 11.7787 7.91197 11.7786 7.58333V5.95833C11.7786 5.63068 11.6707 5.31215 11.4714 5.05207C11.2721 4.79198 10.9927 4.60486 10.6763 4.51967C10.4694 2.62167 8.6239 1.21875 6.49731 1.21875C4.37073 1.21875 2.52527 2.62167 2.31836 4.51967Z" fill="#333333"/>
</svg>
