<svg width="13" height="13" viewBox="0 0 13 13" fill="none" xmlns="http://www.w3.org/2000/svg">
<g clip-path="url(#clip0_4060_4871)">
<mask id="mask0_4060_4871" style="mask-type:alpha" maskUnits="userSpaceOnUse" x="0" y="0" width="13" height="13">
<rect width="13" height="13" fill="#D9D9D9"/>
</mask>
<g mask="url(#mask0_4060_4871)">
<path d="M1.625 5.95833V1.625H5.95833V5.95833H1.625ZM2.70833 4.875H4.875V2.70833H2.70833V4.875ZM1.625 11.375V7.04167H5.95833V11.375H1.625ZM2.70833 10.2917H4.875V8.125H2.70833V10.2917ZM7.04167 5.95833V1.625H11.375V5.95833H7.04167ZM8.125 4.875H10.2917V2.70833H8.125V4.875ZM10.2917 11.375V10.2917H11.375V11.375H10.2917ZM7.04167 8.125V7.04167H8.125V8.125H7.04167ZM8.125 9.20833V8.125H9.20833V9.20833H8.125ZM7.04167 10.2917V9.20833H8.125V10.2917H7.04167ZM8.125 11.375V10.2917H9.20833V11.375H8.125ZM9.20833 10.2917V9.20833H10.2917V10.2917H9.20833ZM9.20833 8.125V7.04167H10.2917V8.125H9.20833ZM10.2917 9.20833V8.125H11.375V9.20833H10.2917Z" fill="#333333"/>
</g>
</g>
<defs>
<clipPath id="clip0_4060_4871">
<rect width="13" height="13" fill="white"/>
</clipPath>
</defs>
</svg>
