<svg width="13" height="13" viewBox="0 0 13 13" fill="none" xmlns="http://www.w3.org/2000/svg">
<g clip-path="url(#clip0_4060_4917)">
<mask id="mask0_4060_4917" style="mask-type:alpha" maskUnits="userSpaceOnUse" x="0" y="0" width="13" height="13">
<rect width="13" height="13" fill="#D9D9D9"/>
</mask>
<g mask="url(#mask0_4060_4917)">
<path d="M3.25 11.375V1.625H7.04167C7.94444 1.625 8.71181 1.94097 9.34375 2.57292C9.97569 3.20486 10.2917 3.97222 10.2917 4.875C10.2917 5.77778 9.97569 6.54514 9.34375 7.17708C8.71181 7.80903 7.94444 8.125 7.04167 8.125H5.41667V11.375H3.25ZM5.41667 5.95833H7.15C7.44792 5.95833 7.70295 5.85226 7.9151 5.6401C8.12726 5.42795 8.23333 5.17292 8.23333 4.875C8.23333 4.57708 8.12726 4.32205 7.9151 4.1099C7.70295 3.89774 7.44792 3.79167 7.15 3.79167H5.41667V5.95833Z" fill="#333333"/>
</g>
</g>
<defs>
<clipPath id="clip0_4060_4917">
<rect width="13" height="13" fill="white"/>
</clipPath>
</defs>
</svg>
