<svg width="13" height="13" viewBox="0 0 13 13" fill="none" xmlns="http://www.w3.org/2000/svg">
<g clip-path="url(#clip0_4060_4878)">
<mask id="mask0_4060_4878" style="mask-type:luminance" maskUnits="userSpaceOnUse" x="1" y="1" width="11" height="11">
<path d="M10.7204 2H2.2476C1.83471 2 1.5 2.37776 1.5 2.84375V10.1562C1.5 10.6222 1.83471 11 2.2476 11H10.7204C11.1333 11 11.468 10.6222 11.468 10.1562V2.84375C11.468 2.37776 11.1333 2 10.7204 2Z" stroke="white" stroke-width="0.996797" stroke-linejoin="round"/>
<path d="M1.5 2.84375C1.5 2.61997 1.57876 2.40536 1.71897 2.24713C1.85917 2.08889 2.04932 2 2.2476 2H10.7204C10.9186 2 11.1088 2.08889 11.249 2.24713C11.3892 2.40536 11.468 2.61997 11.468 2.84375V5.375H1.5V2.84375Z" fill="white" stroke="white" stroke-width="0.996797"/>
<path d="M2.49539 3.67969C2.49539 3.36903 2.71853 3.11719 2.99379 3.11719C3.26905 3.11719 3.49219 3.36903 3.49219 3.67969C3.49219 3.99035 3.26905 4.24219 2.99379 4.24219C2.71853 4.24219 2.49539 3.99035 2.49539 3.67969Z" fill="black"/>
<path d="M3.98758 3.67969C3.98758 3.36903 4.21072 3.11719 4.48598 3.11719C4.76123 3.11719 4.98438 3.36903 4.98438 3.67969C4.98438 3.99035 4.76123 4.24219 4.48598 4.24219C4.21072 4.24219 3.98758 3.99035 3.98758 3.67969Z" fill="black"/>
</mask>
<g mask="url(#mask0_4060_4878)">
<path d="M0.414062 -0.445312H12.3756V13.0547H0.414062V-0.445312Z" fill="#333333"/>
</g>
</g>
<defs>
<clipPath id="clip0_4060_4878">
<rect width="13" height="13" fill="white"/>
</clipPath>
</defs>
</svg>
