<svg width="13" height="13" viewBox="0 0 13 13" fill="none" xmlns="http://www.w3.org/2000/svg">
<g clip-path="url(#clip0_4060_4902)">
<path d="M6.5 12.5C4.82222 12.5 3.40278 12.2417 2.24167 11.725C1.08056 11.2083 0.5 10.5778 0.5 9.83333V3.16667C0.5 2.43333 1.08611 1.80556 2.25833 1.28333C3.43056 0.761111 4.84444 0.5 6.5 0.5C8.15556 0.5 9.56944 0.761111 10.7417 1.28333C11.9139 1.80556 12.5 2.43333 12.5 3.16667V9.83333C12.5 10.5778 11.9194 11.2083 10.7583 11.725C9.59722 12.2417 8.17778 12.5 6.5 12.5ZM6.5 4.51667C7.48889 4.51667 8.48333 4.375 9.48333 4.09167C10.4833 3.80833 11.0444 3.50556 11.1667 3.18333C11.0444 2.86111 10.4861 2.55556 9.49167 2.26667C8.49722 1.97778 7.5 1.83333 6.5 1.83333C5.48889 1.83333 4.49722 1.975 3.525 2.25833C2.55278 2.54167 1.98889 2.85 1.83333 3.18333C1.98889 3.51667 2.55278 3.82222 3.525 4.1C4.49722 4.37778 5.48889 4.51667 6.5 4.51667ZM6.5 7.83333C6.96667 7.83333 7.41667 7.81111 7.85 7.76667C8.28333 7.72222 8.69722 7.65833 9.09167 7.575C9.48611 7.49167 9.85833 7.38889 10.2083 7.26667C10.5583 7.14444 10.8778 7.00556 11.1667 6.85V4.85C10.8778 5.00556 10.5583 5.14444 10.2083 5.26667C9.85833 5.38889 9.48611 5.49167 9.09167 5.575C8.69722 5.65833 8.28333 5.72222 7.85 5.76667C7.41667 5.81111 6.96667 5.83333 6.5 5.83333C6.03333 5.83333 5.57778 5.81111 5.13333 5.76667C4.68889 5.72222 4.26944 5.65833 3.875 5.575C3.48056 5.49167 3.11111 5.38889 2.76667 5.26667C2.42222 5.14444 2.11111 5.00556 1.83333 4.85V6.85C2.11111 7.00556 2.42222 7.14444 2.76667 7.26667C3.11111 7.38889 3.48056 7.49167 3.875 7.575C4.26944 7.65833 4.68889 7.72222 5.13333 7.76667C5.57778 7.81111 6.03333 7.83333 6.5 7.83333ZM6.5 11.1667C7.01111 11.1667 7.53056 11.1278 8.05833 11.05C8.58611 10.9722 9.07222 10.8694 9.51667 10.7417C9.96111 10.6139 10.3333 10.4694 10.6333 10.3083C10.9333 10.1472 11.1111 9.98333 11.1667 9.81667V8.18333C10.8778 8.33889 10.5583 8.47778 10.2083 8.6C9.85833 8.72222 9.48611 8.825 9.09167 8.90833C8.69722 8.99167 8.28333 9.05556 7.85 9.1C7.41667 9.14445 6.96667 9.16667 6.5 9.16667C6.03333 9.16667 5.57778 9.14445 5.13333 9.1C4.68889 9.05556 4.26944 8.99167 3.875 8.90833C3.48056 8.825 3.11111 8.72222 2.76667 8.6C2.42222 8.47778 2.11111 8.33889 1.83333 8.18333V9.83333C1.88889 10 2.06389 10.1611 2.35833 10.3167C2.65278 10.4722 3.02222 10.6139 3.46667 10.7417C3.91111 10.8694 4.4 10.9722 4.93333 11.05C5.46667 11.1278 5.98889 11.1667 6.5 11.1667Z" fill="#333333"/>
</g>
<defs>
<clipPath id="clip0_4060_4902">
<rect width="13" height="13" fill="white"/>
</clipPath>
</defs>
</svg>
