<svg width="16" height="16" viewBox="0 0 16 16" fill="none" xmlns="http://www.w3.org/2000/svg">
<circle cx="7.99858" cy="8.02885" r="6.54545" stroke="#4C4197"/>
<path d="M7.39374 9.392C7.39374 8.86492 7.44098 8.48594 7.53547 8.25507C7.62995 8.02419 7.82998 7.77197 8.13556 7.49841C8.40235 7.26415 8.60577 7.06087 8.7458 6.88856C8.88583 6.71625 8.95572 6.51934 8.95546 6.29784C8.95546 6.03104 8.86605 5.8098 8.68724 5.63411C8.50842 5.45841 8.25945 5.37057 7.94034 5.37057C7.60848 5.37057 7.35639 5.47143 7.18408 5.67315C7.01177 5.87487 6.8897 6.07985 6.81786 6.28808L5.8125 5.85861C5.94915 5.44215 6.19968 5.081 6.56408 4.77516C6.92848 4.46932 7.38723 4.31641 7.94034 4.31641C8.6236 4.31641 9.14911 4.50681 9.5169 4.88761C9.88468 5.2684 10.0684 5.72547 10.0682 6.2588C10.0682 6.58415 9.9983 6.8624 9.85853 7.09354C9.71875 7.32467 9.49907 7.58652 9.19948 7.87908C8.88063 8.18492 8.68711 8.41761 8.61891 8.57717C8.55072 8.73673 8.51649 9.00833 8.51623 9.392H7.39374ZM7.94034 11.7346C7.72561 11.7346 7.54184 11.6582 7.38906 11.5054C7.23627 11.3526 7.15974 11.1687 7.15948 10.9537C7.15922 10.7387 7.23575 10.555 7.38906 10.4024C7.54237 10.2499 7.72613 10.1734 7.94034 10.1729C8.15456 10.1723 8.33845 10.2489 8.49202 10.4024C8.64559 10.556 8.72198 10.7398 8.7212 10.9537C8.72042 11.1677 8.64403 11.3516 8.49202 11.5054C8.34001 11.6592 8.15612 11.7356 7.94034 11.7346Z" fill="#4C4197"/>
</svg>
