<svg width="13" height="13" viewBox="0 0 13 13" fill="none" xmlns="http://www.w3.org/2000/svg">
<path d="M6.49748 11.9167C5.74817 11.9167 5.04401 11.7744 4.38498 11.4899C3.72595 11.2053 3.15269 10.8195 2.66519 10.3323C2.17769 9.84519 1.79184 9.27193 1.50764 8.61254C1.22345 7.95315 1.08117 7.24899 1.08081 6.50004C1.08045 5.7511 1.22273 5.04693 1.50764 4.38754C1.79256 3.72815 2.17841 3.15489 2.66519 2.66775C3.15196 2.18061 3.72523 1.79476 4.38498 1.51021C5.04473 1.22565 5.74889 1.08337 6.49748 1.08337C7.24606 1.08337 7.95023 1.22565 8.60998 1.51021C9.26973 1.79476 9.84299 2.18061 10.3298 2.66775C10.8165 3.15489 11.2026 3.72815 11.4879 4.38754C11.7731 5.04693 11.9152 5.7511 11.9141 6.50004C11.9131 7.24899 11.7708 7.95315 11.4873 8.61254C11.2038 9.27193 10.818 9.84519 10.3298 10.3323C9.84155 10.8195 9.26828 11.2055 8.60998 11.4904C7.95167 11.7753 7.24751 11.9174 6.49748 11.9167ZM6.49748 10.8334C7.7072 10.8334 8.73185 10.4136 9.57144 9.574C10.411 8.73442 10.8308 7.70976 10.8308 6.50004C10.8308 5.29032 10.411 4.26567 9.57144 3.42608C8.73185 2.5865 7.7072 2.16671 6.49748 2.16671C5.28776 2.16671 4.2631 2.5865 3.42352 3.42608C2.58394 4.26567 2.16414 5.29032 2.16414 6.50004C2.16414 7.70976 2.58394 8.73442 3.42352 9.574C4.2631 10.4136 5.28776 10.8334 6.49748 10.8334ZM6.49748 9.75004C5.5947 9.75004 4.82734 9.43407 4.19539 8.80212C3.56345 8.17018 3.24748 7.40282 3.24748 6.50004C3.24748 5.59726 3.56345 4.8299 4.19539 4.19796C4.82734 3.56601 5.5947 3.25004 6.49748 3.25004C7.40026 3.25004 8.16762 3.56601 8.79956 4.19796C9.43151 4.8299 9.74748 5.59726 9.74748 6.50004C9.74748 7.40282 9.43151 8.17018 8.79956 8.80212C8.16762 9.43407 7.40026 9.75004 6.49748 9.75004ZM6.49748 8.66671C7.09331 8.66671 7.60338 8.45455 8.02769 8.03025C8.45199 7.60594 8.66414 7.09587 8.66414 6.50004C8.66414 5.90421 8.45199 5.39414 8.02769 4.96983C7.60338 4.54553 7.09331 4.33337 6.49748 4.33337C5.90164 4.33337 5.39158 4.54553 4.96727 4.96983C4.54296 5.39414 4.33081 5.90421 4.33081 6.50004C4.33081 7.09587 4.54296 7.60594 4.96727 8.03025C5.39158 8.45455 5.90164 8.66671 6.49748 8.66671ZM6.49748 7.58337C6.19956 7.58337 5.94462 7.47739 5.73264 7.26542C5.52067 7.05344 5.41451 6.79832 5.41414 6.50004C5.41378 6.20176 5.51995 5.94682 5.73264 5.73521C5.94534 5.5236 6.20028 5.41743 6.49748 5.41671C6.79467 5.41599 7.0498 5.52215 7.26285 5.73521C7.47591 5.94826 7.58189 6.20321 7.58081 6.50004C7.57973 6.79687 7.47374 7.052 7.26285 7.26542C7.05196 7.47883 6.79684 7.58482 6.49748 7.58337Z" fill="#333333"/>
</svg>
