<svg width="17" height="17" viewBox="0 0 17 17" fill="none" xmlns="http://www.w3.org/2000/svg">
<mask id="mask0_4175_1208" style="mask-type:alpha" maskUnits="userSpaceOnUse" x="0" y="0" width="17" height="17">
<rect width="17" height="17" fill="#D9D9D9"/>
</mask>
<g mask="url(#mask0_4175_1208)">
<path d="M6.77496 10.7313L12.7781 4.72813C12.9198 4.58646 13.085 4.51562 13.2739 4.51562C13.4628 4.51562 13.6281 4.58646 13.7698 4.72813C13.9114 4.86979 13.9823 5.03802 13.9823 5.23281C13.9823 5.4276 13.9114 5.59583 13.7698 5.7375L7.2708 12.2542C7.12913 12.3958 6.96385 12.4667 6.77496 12.4667C6.58607 12.4667 6.4208 12.3958 6.27913 12.2542L3.2333 9.20833C3.09163 9.06667 3.02375 8.89844 3.02965 8.70365C3.03555 8.50885 3.10934 8.34063 3.25101 8.19896C3.39267 8.05729 3.5609 7.98646 3.75569 7.98646C3.95048 7.98646 4.11871 8.05729 4.26038 8.19896L6.77496 10.7313Z" fill="#4C4197"/>
</g>
</svg>
