<svg width="13" height="13" viewBox="0 0 13 13" fill="none" xmlns="http://www.w3.org/2000/svg">
<g clip-path="url(#clip0_4060_4891)">
<circle cx="6.5" cy="6.5" r="6" fill="#333333"/>
<path d="M8.41144 3.5H4.45469C3.1292 3.5 2.05469 4.57452 2.05469 5.9V7.1C2.05469 8.42548 3.1292 9.5 4.45469 9.5H8.41144C9.73693 9.5 10.8114 8.42548 10.8114 7.1V5.9C10.8114 4.57452 9.73693 3.5 8.41144 3.5Z" fill="white"/>
<path d="M6.60055 6.22212L6.20669 5.82814L5.82547 5.44704L4.94244 4.5639C4.826 4.44745 4.69467 4.44745 4.54847 4.5639L2.80143 6.31105C2.69562 6.45926 2.69137 6.58208 2.78868 6.67951L4.42789 8.3186C4.46379 8.3545 4.49556 8.37789 4.52307 8.3884C4.64164 8.43942 4.74546 8.42029 4.83438 8.33136L5.51321 7.65253L6.05859 8.19802C6.0678 8.207 6.0769 8.207 6.08611 8.19802L6.47158 7.81232C6.4808 7.8031 6.48091 7.79413 6.4717 7.78492L5.92632 7.23954L6.61956 6.54618C6.68204 6.40529 6.67577 6.29723 6.60055 6.22212ZM5.5451 6.8582L5.08121 6.3943C5.07306 6.38627 5.06397 6.38627 5.05357 6.3943L4.6681 6.77978C4.65995 6.78781 4.66007 6.79702 4.6681 6.8073L5.13199 7.27131L4.63751 7.7659L3.36689 6.49528L4.73908 5.12298L5.44436 5.82814L5.82547 6.20936L6.0097 6.39372L5.5451 6.8582Z" fill="#333333"/>
<path fill-rule="evenodd" clip-rule="evenodd" d="M9.15025 5.17927L9.13295 4.75414C9.12471 4.55458 8.98036 4.39283 8.79314 4.35473C8.75957 4.34776 8.7246 4.34477 8.68878 4.34624L8.4228 4.35679C7.89464 4.37849 7.5041 5.29956 7.55249 6.4683C7.56366 6.73586 7.59665 6.98858 7.64722 7.219C7.81714 7.99587 8.18715 8.51941 8.59465 8.50267L8.86059 8.49137C8.97787 8.48655 9.08206 8.43476 9.15576 8.35485C9.22987 8.27472 9.27331 8.16621 9.26845 8.04847L9.25412 7.70679L9.25074 7.62378C9.24981 7.59838 9.24558 7.57429 9.2402 7.55057C9.23945 7.54677 9.23858 7.54308 9.23764 7.53941C9.23656 7.53502 9.23538 7.53067 9.23409 7.5263C9.23373 7.52498 9.23338 7.52365 9.23302 7.52231C9.23246 7.52054 9.23188 7.51877 9.2313 7.51701C9.22868 7.5086 9.22573 7.50051 9.22254 7.49238C9.22188 7.49061 9.22122 7.48884 9.22057 7.48707L9.22013 7.4859C9.20878 7.45861 9.19604 7.43209 9.1799 7.40779C9.1794 7.40703 9.17889 7.40626 9.17839 7.4055C9.09846 7.28614 8.96186 7.2095 8.80806 7.21582C8.7872 7.21653 8.77222 7.2124 8.76252 7.20491C8.57328 7.1682 8.42668 7.00679 8.41837 6.80573L8.41225 6.65746C8.41247 6.65396 8.41252 6.65041 8.4124 6.64683L8.38826 6.0624C8.37995 5.86134 8.51274 5.68845 8.69831 5.63634C8.70736 5.62808 8.72195 5.62274 8.7428 5.62173C8.8966 5.61541 9.02641 5.52783 9.09623 5.40231C9.11077 5.37602 9.1219 5.34802 9.13099 5.31886C9.13484 5.30653 9.13826 5.29451 9.14085 5.28174C9.14297 5.27215 9.14457 5.2628 9.14579 5.2531C9.14918 5.2288 9.15154 5.20428 9.15025 5.17927Z" fill="#05AB2A"/>
</g>
<defs>
<clipPath id="clip0_4060_4891">
<rect width="13" height="13" fill="white"/>
</clipPath>
</defs>
</svg>
