<svg width="22" height="22" viewBox="0 0 22 22" fill="none" xmlns="http://www.w3.org/2000/svg">
<mask id="mask0_5_15027" style="mask-type:alpha" maskUnits="userSpaceOnUse" x="0" y="0" width="22" height="22">
<rect width="22" height="22" fill="#D9D9D9"/>
</mask>
<g mask="url(#mask0_5_15027)">
<path d="M3.66667 6.41927C3.40694 6.41927 3.18924 6.33142 3.01354 6.15573C2.83785 5.98003 2.75 5.76233 2.75 5.5026C2.75 5.24288 2.83785 5.02517 3.01354 4.84948C3.18924 4.67378 3.40694 4.58594 3.66667 4.58594H18.3333C18.5931 4.58594 18.8108 4.67378 18.9865 4.84948C19.1622 5.02517 19.25 5.24288 19.25 5.5026C19.25 5.76233 19.1622 5.98003 18.9865 6.15573C18.8108 6.33142 18.5931 6.41927 18.3333 6.41927H3.66667ZM3.66667 17.4193C3.40694 17.4193 3.18924 17.3314 3.01354 17.1557C2.83785 16.98 2.75 16.7623 2.75 16.5026C2.75 16.2429 2.83785 16.0252 3.01354 15.8495C3.18924 15.6738 3.40694 15.5859 3.66667 15.5859H18.3333C18.5931 15.5859 18.8108 15.6738 18.9865 15.8495C19.1622 16.0252 19.25 16.2429 19.25 16.5026C19.25 16.7623 19.1622 16.98 18.9865 17.1557C18.8108 17.3314 18.5931 17.4193 18.3333 17.4193H3.66667ZM3.66667 11.9193C3.40694 11.9193 3.18924 11.8314 3.01354 11.6557C2.83785 11.48 2.75 11.2623 2.75 11.0026C2.75 10.7429 2.83785 10.5252 3.01354 10.3495C3.18924 10.1738 3.40694 10.0859 3.66667 10.0859H18.3333C18.5931 10.0859 18.8108 10.1738 18.9865 10.3495C19.1622 10.5252 19.25 10.7429 19.25 11.0026C19.25 11.2623 19.1622 11.48 18.9865 11.6557C18.8108 11.8314 18.5931 11.9193 18.3333 11.9193H3.66667Z" fill="#1C1B1F"/>
</g>
</svg>
